HIERARCHY
ROOT Hips
{
    OFFSET 0.000000 0.000000 0.000000
    CHANNELS 6 Xposition Yposition Zposition Zrotation Xrotation Yrotation
    JOINT Spine
    {
        OFFSET -0.000000 14.517291 0.000000
        CHANNELS 3 Zrotation Xrotation Yrotation
        JOINT Spine1
        {
            OFFSET -0.000000 37.558300 0.000000
            CHANNELS 3 Zrotation Xrotation Yrotation
            JOINT Neck
            {
                OFFSET -0.000000 37.404057 3.400369
                CHANNELS 3 Zrotation Xrotation Yrotation
                JOINT Head
                {
                    OFFSET -0.000000 24.785618 -3.540803
                    CHANNELS 3 Zrotation Xrotation Yrotation
                    End Site
                    {
                        OFFSET -0.000000 35.408028 0.000000
                    }
                }
            }
            JOINT LeftShoulder
            {
                OFFSET 6.992933 33.973492 -0.192664
                CHANNELS 3 Zrotation Xrotation Yrotation
                JOINT LeftArm
                {
                    OFFSET 21.527611 0.000000 0.000000
                    CHANNELS 3 Zrotation Xrotation Yrotation
                    JOINT LeftForeArm
                    {
                        OFFSET 56.353916 0.000000 0.000000
                        CHANNELS 3 Zrotation Xrotation Yrotation
                        JOINT LeftHand
                        {
                            OFFSET 47.774071 0.000000 0.000000
                            CHANNELS 3 Zrotation Xrotation Yrotation
                            End Site
                            {
                                OFFSET 26.556021 0.000000 0.000000
                            }
                        }
                    }
                }
            }
            JOINT RightShoulder
            {
                OFFSET -7.065357 33.973492 -0.192664
                CHANNELS 3 Zrotation Xrotation Yrotation
                JOINT RightArm
                {
                    OFFSET -21.527611 0.000000 0.000000
                    CHANNELS 3 Zrotation Xrotation Yrotation
                    JOINT RightForeArm
                    {
                        OFFSET -56.353916 0.000000 0.000000
                        CHANNELS 3 Zrotation Xrotation Yrotation
                        JOINT RightHand
                        {
                            OFFSET -47.774071 0.000000 0.000000
                            CHANNELS 3 Zrotation Xrotation Yrotation
                            End Site
                            {
                                OFFSET -26.556021 0.000000 0.000000
                            }
                        }
                    }
                }
            }
        }
    }
    JOINT LeftUpLeg
    {
        OFFSET 17.704014 0.000000 0.000000
        CHANNELS 3 Zrotation Xrotation Yrotation
        JOINT LeftLeg
        {
            OFFSET -0.000000 -81.181816 0.000000
            CHANNELS 3 Zrotation Xrotation Yrotation
            JOINT LeftFoot
            {
                OFFSET -0.000000 -62.821102 0.000000
                CHANNELS 3 Zrotation Xrotation Yrotation
                JOINT LeftToeBase
                {
                    OFFSET -0.000000 -11.507608 26.556021
                    CHANNELS 3 Zrotation Xrotation Yrotation
                    End Site
                    {
                        OFFSET -0.000000 0.000000 7.081605
                    }
                }
            }
        }
    }
    JOINT RightUpLeg
    {
        OFFSET -17.704014 0.000000 0.000000
        CHANNELS 3 Zrotation Xrotation Yrotation
        JOINT RightLeg
        {
            OFFSET -0.000000 -81.181816 0.000000
            CHANNELS 3 Zrotation Xrotation Yrotation
            JOINT RightFoot
            {
                OFFSET -0.000000 -62.821102 0.000000
                CHANNELS 3 Zrotation Xrotation Yrotation
                JOINT RightToeBase
                {
                    OFFSET -0.000000 -11.507608 26.556021
                    CHANNELS 3 Zrotation Xrotation Yrotation
                    End Site
                    {
                        OFFSET -0.000000 0.000000 7.081605
                    }
                }
            }
        }
    }
}
MOTION
Frames:    12
Frame Time:    0.008333
-1.145005    136.464081    57.771343    3.222474    5.325770    -46.335918    -2.363281    4.545450    -2.596569    -0.307903    -1.230070    -0.901575    17.457119    -2.192770    8.977184    -6.767578    4.650693    5.695893    13.511543    1.767959    -17.815248    -6.026360    -8.921838    -28.402542    12.876012    0.920645    -53.370869    0.373907    7.249239    -45.926258    -9.451247    -3.524503    -7.347059    28.446424    -26.089804    38.530891    7.111223    -21.806248    104.482307    14.034845    -26.754396    29.991243    44.399910    -32.002781    16.112724    -39.719826    51.210052    1.299011    -3.067690    -21.268921    39.464165    0.000000    0.000000    0.000000    -35.176048    -19.704815    -10.825868    2.020399    37.001060    -4.904972    26.266415    -4.282835    -11.958800    0.000000    0.000000    0.000000    
-0.396360    136.981934    58.569218    3.193796    5.548737    -46.508892    -2.403616    4.564178    -2.532828    -0.138248    -1.265920    -0.879214    17.639664    -2.184315    8.990581    -6.902589    4.604174    5.663122    13.538335    1.735717    -17.905291    -6.084790    -9.051740    -28.470060    12.754203    1.047741    -53.664753    0.477314    7.311654    -45.853741    -9.363592    -3.511669    -7.399632    28.531092    -26.076717    38.565289    6.990035    -21.920391    104.581551    14.146653    -26.713091    29.969357    44.021317    -32.167763    15.821451    -39.736755    51.271595    1.392874    -2.670167    -21.364639    39.815418    0.000000    0.000000    0.000000    -34.933262    -19.519243    -10.008768    1.965974    35.593693    -5.227443    26.664824    -2.552324    -13.208563    0.000000    0.000000    0.000000    
0.403850    137.557587    59.389442    3.184080    5.801069    -46.739330    -2.405872    4.569686    -2.480812    0.004474    -1.215684    -0.860345    17.807228    -2.484033    9.065619    -6.942295    4.791323    5.672064    13.590746    1.618431    -17.829821    -6.184873    -9.175040    -28.591583    12.667860    1.176557    -54.003399    0.448732    7.454545    -45.853821    -9.291142    -3.594973    -7.557248    28.738880    -26.098598    38.739796    6.998359    -21.826733    104.720856    14.096293    -26.665352    29.969250    43.624889    -32.313896    15.566478    -39.674450    51.280296    1.500794    -2.278350    -21.412022    40.138531    0.000000    0.000000    0.000000    -34.729092    -19.393353    -9.275505    1.889336    34.141830    -5.366798    27.005966    -0.597664    -14.504258    0.000000    0.000000    0.000000    
1.236288    138.181641    60.232971    3.147006    6.060892    -47.009377    -2.435871    4.597265    -2.409834    0.247386    -1.255084    -0.834659    17.870375    -2.449108    9.085870    -6.924069    4.684813    5.683121    13.600298    1.615697    -17.883640    -6.264089    -9.248416    -28.636969    12.566626    1.284762    -54.316277    0.587605    7.496721    -45.557117    -9.198024    -3.546589    -7.578492    28.839506    -26.158697    38.825897    6.929728    -21.799038    104.846626    14.119393    -26.571941    29.960972    43.233196    -32.402416    15.243525    -39.644073    51.203114    1.610088    -1.884611    -21.447762    40.511909    0.000000    0.000000    0.000000    -34.543404    -19.231283    -8.359154    1.986510    32.548046    -5.832226    27.396296    1.573239    -15.735935    0.000000    0.000000    0.000000    
2.087403    138.859940    61.090233    3.070648    6.352557    -47.315590    -2.358664    4.713205    -2.405148    0.411815    -1.426863    -0.830407    18.060324    -2.415923    9.146281    -7.011444    4.691614    5.709769    13.587229    1.666465    -17.833433    -6.315328    -9.257854    -28.654419    12.509836    1.395379    -54.595211    0.595140    7.612585    -45.533417    -9.038384    -3.463871    -7.494101    28.953550    -26.231058    38.921299    6.877253    -21.679474    104.994881    14.088288    -26.421131    29.986673    42.862484    -32.447140    15.004152    -39.470589    51.147434    1.600769    -1.515114    -21.473553    40.910393    0.000000    0.000000    0.000000    -34.319649    -19.066734    -7.615385    2.000886    30.877274    -6.138430    27.874763    3.837995    -17.115541    0.000000    0.000000    0.000000    
2.936238    139.567154    61.966534    2.968106    6.658970    -47.641468    -2.341461    4.752329    -2.354164    0.713252    -1.442493    -0.809553    18.154638    -2.427665    9.185011    -7.021473    4.671626    5.729517    13.584321    1.659678    -17.834150    -6.390486    -9.246632    -28.671097    12.514910    1.576054    -54.941956    0.627552    7.832016    -45.025627    -8.962806    -3.440159    -7.489347    28.936174    -25.998894    38.987900    6.715762    -21.978016    105.131287    14.195065    -26.506701    30.032204    42.516487    -32.428680    14.712443    -39.323803    51.013527    1.571030    -1.135700    -21.506603    41.342163    0.000000    0.000000    0.000000    -34.099434    -18.843428    -6.884619    2.093518    29.071026    -6.534674    28.286631    6.228518    -18.453781    0.000000    0.000000    0.000000    
3.792485    140.301849    62.850468    2.823706    6.976056    -48.013306    -2.291257    4.815609    -2.284971    0.991212    -1.451764    -0.782630    18.368118    -2.420980    9.242612    -7.135023    4.653140    5.740629    13.647819    1.656586    -17.801563    -6.505074    -9.225969    -28.716038    12.362089    1.588294    -55.116596    0.501542    7.838254    -45.373993    -8.840006    -3.409245    -7.443643    28.950731    -25.955694    39.024040    6.649372    -22.004984    105.249763    14.317055    -26.432867    30.104340    42.219383    -32.340065    14.460411    -39.159962    50.843575    1.569936    -0.790341    -21.497009    41.727448    0.000000    0.000000    0.000000    -33.847038    -18.622541    -6.354311    2.137290    27.225414    -6.691587    28.609364    8.709156    -19.947538    0.000000    0.000000    0.000000    
4.648853    141.066666    63.721912    2.678011    7.320066    -48.408470    -2.294774    4.891641    -2.205972    1.380540    -1.458566    -0.751613    18.480381    -2.525872    9.314451    -7.102850    4.708597    5.785314    13.673922    1.655625    -17.719025    -6.591863    -9.159725    -28.818239    12.176707    1.588004    -55.345123    0.645782    7.713464    -45.119743    -8.725156    -3.421775    -7.452592    28.897072    -25.845060    39.076565    6.603104    -22.026688    105.371765    14.307553    -26.410191    30.173979    41.977730    -32.161461    14.219770    -38.983883    50.603123    1.653573    -0.531910    -21.550821    41.841358    0.000000    0.000000    0.000000    -33.574017    -18.391294    -6.027449    2.170233    25.289654    -6.881387    28.886372    11.284772    -21.397886    0.000000    0.000000    0.000000    
5.484989    141.840820    64.574646    2.522790    7.715604    -48.813408    -2.345289    4.800523    -2.049540    1.846051    -1.273311    -0.696614    18.729216    -2.587251    9.365879    -7.243372    4.684353    5.769036    13.775635    1.614540    -17.787451    -6.693807    -9.065414    -28.885546    12.271249    1.668892    -55.545700    0.677911    7.861112    -44.608112    -8.599232    -3.485868    -7.488257    28.810141    -25.789349    39.081593    6.649428    -22.031094    105.463570    14.458901    -26.428160    30.314713    41.808735    -32.020100    14.068465    -38.768597    50.341690    1.701371    -0.275213    -21.484484    42.072456    0.000000    0.000000    0.000000    -33.254864    -18.142948    -5.908332    2.243549    23.285978    -7.070770    29.026783    13.893859    -22.830902    0.000000    0.000000    0.000000    
6.298657    142.628555    65.391670    2.360000    8.134049    -49.229622    -2.323573    4.766438    -1.941308    2.257048    -1.229010    -0.654953    18.911142    -2.559967    9.429276    -7.307467    4.663889    5.799802    13.783879    1.615164    -17.845612    -6.691936    -8.865802    -28.870995    12.367995    1.668132    -55.490303    0.614418    7.926194    -45.176785    -8.475111    -3.436037    -7.474683    28.782892    -25.693100    39.148232    6.590564    -22.034737    105.567200    14.490020    -26.357319    30.407343    41.693920    -31.828632    13.930561    -38.540768    49.988972    1.755356    -0.056388    -21.404310    42.246243    0.000000    0.000000    0.000000    -32.867592    -17.887665    -6.005304    2.276509    21.286461    -7.259160    29.099436    16.461212    -24.106876    0.000000    0.000000    0.000000    
7.074364    143.402420    66.188965    2.170814    8.566077    -49.657974    -2.280413    4.709972    -1.818472    2.606030    -1.162300    -0.610942    19.204147    -2.530198    9.479297    -7.407243    4.679826    5.796213    13.881454    1.666009    -17.938457    -6.683023    -8.724049    -28.843374    12.566531    1.731541    -55.563892    0.481167    8.160771    -44.845894    -8.259816    -3.450446    -7.446266    28.709644    -25.643656    39.151016    6.686377    -21.875603    105.704514    14.564388    -26.319586    30.403698    41.636051    -31.596146    13.886110    -38.259304    49.663700    1.798339    0.151879    -21.311922    42.354034    0.000000    0.000000    0.000000    -32.387760    -17.582161    -6.267383    2.287126    19.242023    -7.724899    29.085815    19.015308    -25.062197    0.000000    0.000000    0.000000    
7.828029    144.152649    66.941803    2.033891    9.025738    -50.075951    -2.190621    4.598897    -1.686443    2.926661    -1.104483    -0.563266    19.349039    -2.536742    9.522388    -7.419464    4.705299    5.814879    13.831314    1.674428    -18.061750    -6.526509    -8.530733    -28.792404    12.229698    1.896662    -55.839344    1.220560    7.891105    -44.045677    -8.160634    -3.410510    -7.520287    28.853628    -25.701740    39.273087    6.836637    -21.451202    105.911102    14.477007    -26.137869    30.435762    41.617229    -31.417910    13.843511    -38.015526    49.304729    1.833168    0.244398    -21.244547    42.486908    0.000000    0.000000    0.000000    -31.894499    -17.322767    -6.687261    2.348248    17.295681    -8.249354    28.783863    21.381245    -25.738073    0.000000    0.000000    0.000000    
